<svg xmlns="http://www.w3.org/2000/svg" version="1.1" xmlns:xlink="http://www.w3.org/1999/xlink" xmlns:svgjs="http://svgjs.dev/svgjs" width="1000" height="363" viewBox="0 0 1000 363"><g transform="matrix(1,0,0,1,-0.6060581134387917,-0.12476793657705798)"><svg viewBox="0 0 396 144" data-background-color="#ffffff" preserveAspectRatio="xMidYMid meet" height="363" width="1000" xmlns="http://www.w3.org/2000/svg" xmlns:xlink="http://www.w3.org/1999/xlink"><g id="tight-bounds" transform="matrix(1,0,0,1,0.23999901292177128,0.04949471864213706)"><svg viewBox="0 0 395.52 143.9010105627157" height="143.9010105627157" width="395.52"><g><svg viewBox="0 0 395.52 143.9010105627157" height="143.9010105627157" width="395.52"><g transform="matrix(1,0,0,1,0,88.93659754998585)"><svg viewBox="0 0 395.52 54.96441301272984" height="54.96441301272984" width="395.52"><g id="textblocktransform"><svg viewBox="0 0 395.52 54.96441301272984" height="54.96441301272984" width="395.52" id="textblock"><g><svg viewBox="0 0 395.52 54.96441301272984" height="54.96441301272984" width="395.52"><g transform="matrix(1,0,0,1,0,0)"><svg width="395.52" viewBox="5.199999809265137 -37.650001525878906 282.7799987792969 39.30000305175781" height="54.96441301272984" data-palette-color="#233565"><path d="M5.2-36.15L14.5-36.15Q19.95-36.15 23.08-33.93 26.2-31.7 26.2-27L26.2-27Q26.2-24.15 24.9-22.05 23.6-19.95 21.28-18.75 18.95-17.55 15.8-17.4L15.8-17.4 15.1-19.9Q18.75-19.8 21.65-18.6 24.55-17.4 26.25-15.25 27.95-13.1 27.95-10.15L27.95-10.15Q27.95-7.45 26.95-5.53 25.95-3.6 24.25-2.38 22.55-1.15 20.4-0.58 18.25 0 15.95 0L15.95 0 5.2 0 5.2-36.15ZM10.05-20.3L15.5-20.3Q18.5-20.3 19.85-21.98 21.2-23.65 21.2-26.05L21.2-26.05Q21.2-28.9 19.45-30.2 17.7-31.5 14.75-31.5L14.75-31.5 10.05-31.5 10.05-20.3ZM10.05-4.5L15.7-4.5Q17.7-4.5 19.38-5.1 21.05-5.7 22.03-6.95 23-8.2 23-10.1L23-10.1Q23-12.2 21.88-13.4 20.75-14.6 19-15.13 17.25-15.65 15.4-15.65L15.4-15.65 10.05-15.65 10.05-4.5ZM33.85-18.05L33.85-18.05Q33.85-21.8 35.27-25.13 36.7-28.45 39.25-31.03 41.8-33.6 45.12-35.08 48.45-36.55 52.3-36.55L52.3-36.55Q56.1-36.55 59.42-35.08 62.75-33.6 65.32-31.03 67.9-28.45 69.35-25.13 70.8-21.8 70.8-18.05L70.8-18.05Q70.8-14.2 69.35-10.85 67.9-7.5 65.32-4.98 62.75-2.45 59.42-1.03 56.1 0.4 52.3 0.4L52.3 0.4Q48.45 0.4 45.12-1 41.8-2.4 39.25-4.9 36.7-7.4 35.27-10.75 33.85-14.1 33.85-18.05ZM38.85-18L38.85-18Q38.85-15.15 39.9-12.68 40.95-10.2 42.8-8.3 44.65-6.4 47.1-5.33 49.55-4.25 52.4-4.25L52.4-4.25Q55.2-4.25 57.65-5.33 60.1-6.4 61.9-8.3 63.7-10.2 64.75-12.68 65.8-15.15 65.8-18.05L65.8-18.05Q65.8-20.9 64.75-23.43 63.7-25.95 61.85-27.85 60-29.75 57.55-30.83 55.1-31.9 52.3-31.9L52.3-31.9Q49.45-31.9 47-30.8 44.55-29.7 42.7-27.8 40.85-25.9 39.85-23.38 38.85-20.85 38.85-18ZM76.7-18.05L76.7-18.05Q76.7-21.8 78.12-25.13 79.55-28.45 82.09-31.03 84.65-33.6 87.97-35.08 91.3-36.55 95.15-36.55L95.15-36.55Q98.95-36.55 102.27-35.08 105.59-33.6 108.17-31.03 110.75-28.45 112.2-25.13 113.65-21.8 113.65-18.05L113.65-18.05Q113.65-14.2 112.2-10.85 110.75-7.5 108.17-4.98 105.59-2.45 102.27-1.03 98.95 0.4 95.15 0.4L95.15 0.4Q91.3 0.4 87.97-1 84.65-2.4 82.09-4.9 79.55-7.4 78.12-10.75 76.7-14.1 76.7-18.05ZM81.7-18L81.7-18Q81.7-15.15 82.75-12.68 83.8-10.2 85.65-8.3 87.5-6.4 89.95-5.33 92.4-4.25 95.25-4.25L95.25-4.25Q98.05-4.25 100.5-5.33 102.95-6.4 104.75-8.3 106.55-10.2 107.59-12.68 108.65-15.15 108.65-18.05L108.65-18.05Q108.65-20.9 107.59-23.43 106.55-25.95 104.7-27.85 102.84-29.75 100.4-30.83 97.95-31.9 95.15-31.9L95.15-31.9Q92.3-31.9 89.84-30.8 87.4-29.7 85.55-27.8 83.7-25.9 82.7-23.38 81.7-20.85 81.7-18ZM126.69-36.15L126.69-21.6 126.54-19.8 127.19-20.7 141.99-36.15 148.24-36.15 133.29-20.65 149.09 0 142.94 0 129.74-17.55 126.69-14.6 126.69 0 121.79 0 121.79-36.15 126.69-36.15ZM176.29-33.4L174.44-29.7Q172.59-30.65 170.39-31.35 168.19-32.05 166.09-32.05L166.09-32.05Q163.19-32.05 161.47-30.7 159.74-29.35 159.74-27.1L159.74-27.1Q159.74-25.4 160.84-24.23 161.94-23.05 163.74-22.2 165.54-21.35 167.49-20.6L167.49-20.6Q169.19-19.95 170.84-19.15 172.49-18.35 173.82-17.15 175.14-15.95 175.92-14.2 176.69-12.45 176.69-9.85L176.69-9.85Q176.69-7 175.27-4.65 173.84-2.3 171.19-0.95 168.54 0.4 164.89 0.4L164.89 0.4Q162.49 0.4 160.32-0.15 158.14-0.7 156.29-1.58 154.44-2.45 152.99-3.4L152.99-3.4 155.14-7.2Q156.34-6.35 157.89-5.58 159.44-4.8 161.14-4.33 162.84-3.85 164.44-3.85L164.44-3.85Q166.14-3.85 167.82-4.48 169.49-5.1 170.59-6.4 171.69-7.7 171.69-9.85L171.69-9.85Q171.69-11.7 170.72-12.93 169.74-14.15 168.14-15.03 166.54-15.9 164.74-16.6L164.74-16.6Q163.04-17.25 161.29-18.03 159.54-18.8 158.04-19.93 156.54-21.05 155.64-22.7 154.74-24.35 154.74-26.7L154.74-26.7Q154.74-29.55 156.12-31.68 157.49-33.8 159.89-35.02 162.29-36.25 165.39-36.35L165.39-36.35Q168.89-36.35 171.57-35.5 174.24-34.65 176.29-33.4L176.29-33.4ZM196.09 1.65L181.69-35.95 187.29-35.95 197.09-8.35 196.24-8.7 203.39-27.2 205.64-20.65 196.09 1.65ZM213.79 1.6L199.04-35.95 203.89-35.95 214.49-8.75 213.49-8.95 222.84-35.95 227.99-35.95 213.79 1.6ZM231.84 0L227.09 0 242.89-37.65 243.19-37.65 258.94 0 253.39 0 241.59-30.05 245.04-32.3 231.84 0ZM234.94-9.5L236.34-13.7 249.79-13.7 251.39-9.5 234.94-9.5ZM265.73-36.15L275.38-36.15Q279.33-36.15 282.13-34.83 284.93-33.5 286.46-31 287.98-28.5 287.98-24.95L287.98-24.95Q287.98-22.8 287.33-20.73 286.68-18.65 285.26-16.98 283.83-15.3 281.53-14.3 279.23-13.3 275.93-13.3L275.93-13.3 270.58-13.3 270.58 0 265.73 0 265.73-36.15ZM270.58-17.95L275.88-17.95Q278.03-17.95 279.43-18.65 280.83-19.35 281.63-20.43 282.43-21.5 282.78-22.7 283.13-23.9 283.13-24.85L283.13-24.85Q283.13-25.95 282.78-27.13 282.43-28.3 281.61-29.28 280.78-30.25 279.46-30.88 278.13-31.5 276.18-31.5L276.18-31.5 270.58-31.5 270.58-17.95Z" opacity="1" transform="matrix(1,0,0,1,0,0)" fill="#233565" class="wordmark-text-0" data-fill-palette-color="primary" id="text-0"></path></svg></g></svg></g></svg></g></svg></g><g transform="matrix(1,0,0,1,151.77958721514105,0)"><svg viewBox="0 0 91.9608255697179 75.96081878359264" height="75.96081878359264" width="91.9608255697179"><g><svg xmlns="http://www.w3.org/2000/svg" xmlns:xlink="http://www.w3.org/1999/xlink" version="1.1" x="8" y="0" viewBox="5.900000095367432 8 85.4000015258789 85.39999389648438" enable-background="new 0 0 100 100" xml:space="preserve" height="75.96081878359264" width="75.9608255697179" class="icon-icon-0" data-fill-palette-color="accent" id="icon-0"><rect x="5.9" y="8" width="36.6" height="36.6" fill="#2cc4c4" data-fill-palette-color="accent"></rect><path d="M32.6 61.9h7L28.5 51l-11.1 11h7c1 12.6 11.7 22.6 24.6 22.6v-8.1C40.6 76.4 33.6 70.1 32.6 61.9z" fill="#2cc4c4" data-fill-palette-color="accent"></path><path d="M66.7 38.4h-6.9l11.1 11.1L82 38.4h-7c-1-12.6-11.7-22.6-24.7-22.6V24C58.7 24 65.7 30.3 66.7 38.4z" fill="#2cc4c4" data-fill-palette-color="accent"></path><circle cx="73" cy="75.1" r="18" fill="#2cc4c4" data-fill-palette-color="accent"></circle></svg></g></svg></g><g><rect width="151.77958721514105" height="4.956747488762207" y="70.00407129483044" x="243.74041278485896" fill="#2cc4c4" data-fill-palette-color="accent"></rect><rect width="151.77958721514105" height="4.956747488762207" y="70.00407129483044" x="0" fill="#2cc4c4" data-fill-palette-color="accent"></rect><rect width="151.77958721514105" height="4.956747488762207" y="60.090576317306024" x="243.74041278485896" fill="#2cc4c4" data-fill-palette-color="accent"></rect><rect width="151.77958721514105" height="4.956747488762207" y="60.090576317306024" x="0" fill="#2cc4c4" data-fill-palette-color="accent"></rect></g></svg></g><defs></defs></svg><rect width="395.52" height="143.9010105627157" fill="none" stroke="none" visibility="hidden"></rect></g></svg></g></svg>